<svg data-v-fde0c5aa="" xmlns="http://www.w3.org/2000/svg" viewBox="0 0 300 300" class="iconLeft"><!----><defs data-v-fde0c5aa=""><!----></defs><rect data-v-fde0c5aa="" fill="transparent" x="0" y="0" width="300px" height="300px" class="logo-background-square"></rect><defs data-v-fde0c5aa=""><!----></defs><g data-v-fde0c5aa="" id="243e1b47-6441-4f9e-beda-cafe26eafc27" fill="#000000" transform="matrix(2.6975884437561035,0,0,2.6975884437561035,93.369962579444,122.16088691411576)"><path d="M1.09 9.48C1.09 10.15 1.27 10.70 1.62 11.09C1.11 11.45 0.77 11.87 0.77 12.52C0.77 13.29 1.25 13.58 1.79 13.78C1.40 14.04 0.77 14.56 0.77 15.37C0.77 16.76 2.59 17.04 3.75 17.04C5.49 17.04 6.85 16.41 6.85 14.88C6.85 13.27 5.32 13.09 3.95 13.01C2.81 12.94 1.78 12.92 1.78 12.25C1.78 11.96 1.96 11.75 2.24 11.55C2.62 11.73 3.08 11.83 3.63 11.83C5.25 11.83 6.24 10.98 6.24 9.42C6.24 8.97 6.16 8.58 5.99 8.25C6.64 7.94 6.94 7.43 6.94 6.80C6.94 6.66 6.93 6.51 6.89 6.34L5.92 6.20L5.92 6.69C5.92 7.04 5.82 7.39 5.56 7.67C5.11 7.25 4.48 7.03 3.68 7.03C1.99 7.03 1.09 8.01 1.09 9.48ZM3.64 10.98C2.67 10.98 2.30 10.42 2.30 9.45C2.30 8.46 2.70 7.88 3.67 7.88C4.62 7.88 5.04 8.44 5.04 9.42C5.04 10.42 4.62 10.98 3.64 10.98ZM3.79 14.06C4.89 14.13 5.80 14.28 5.80 15.05C5.80 15.85 4.86 16.14 3.74 16.14C2.90 16.14 1.78 15.97 1.78 15.16C1.78 14.60 2.28 14.24 2.73 13.99C3.14 14.03 3.33 14.03 3.79 14.06ZM8.27 13.65L9.39 13.65L9.39 10.37C9.56 9.41 10.02 8.08 10.98 8.08C11.38 8.08 11.62 8.48 11.62 8.48L12.24 7.60C12.24 7.60 11.91 7.03 11.19 7.03C10.16 7.03 9.58 7.85 9.35 8.47L9.35 7.22L8.27 7.22ZM15.89 13.85C17.98 13.85 18.86 12.32 18.86 10.33C18.86 8.25 17.86 7.03 15.89 7.03C13.85 7.03 12.89 8.44 12.89 10.33C12.89 12.47 13.78 13.85 15.89 13.85ZM15.89 12.92C14.73 12.92 14.10 12.08 14.10 10.47C14.10 8.88 14.73 7.95 15.89 7.95C17.04 7.95 17.65 8.85 17.65 10.47C17.65 11.96 17.04 12.92 15.89 12.92ZM22.08 13.65L22.97 13.65L24.32 9.94C24.43 9.63 24.53 9.30 24.63 8.99C24.71 9.30 24.82 9.65 24.93 9.95L26.25 13.65L27.15 13.65L29.43 7.22L28.32 7.22L26.98 11.19C26.89 11.42 26.80 11.76 26.71 12.03L26.45 11.19L25.10 7.22L24.26 7.22L22.85 11.19C22.76 11.40 22.68 11.72 22.61 12.01L22.36 11.19L20.99 7.22L19.78 7.22ZM33.89 13.65L34.83 13.65L34.89 12.80C35.22 13.38 35.78 13.85 36.86 13.85C38.79 13.85 39.66 12.24 39.66 10.22C39.66 8.64 38.96 7.03 36.97 7.03C36.05 7.03 35.41 7.52 35.01 8.04L35.01 3.60L33.89 3.60ZM36.83 12.92C35.73 12.92 35.03 11.93 35.03 10.49C35.03 9.04 35.70 7.95 36.88 7.95C37.86 7.95 38.46 8.71 38.46 10.30C38.46 11.79 38.01 12.92 36.83 12.92ZM44.03 13.85C46.12 13.85 47.00 12.32 47.00 10.33C47.00 8.25 46.00 7.03 44.03 7.03C41.99 7.03 41.03 8.44 41.03 10.33C41.03 12.47 41.92 13.85 44.03 13.85ZM44.03 12.92C42.87 12.92 42.24 12.08 42.24 10.47C42.24 8.88 42.87 7.95 44.03 7.95C45.18 7.95 45.79 8.85 45.79 10.47C45.79 11.96 45.18 12.92 44.03 12.92ZM48.76 13.65L49.88 13.65L49.88 10.22C50.01 9.65 50.53 7.99 51.97 7.99C52.64 7.99 52.98 8.36 52.98 9.32L52.98 13.65L54.10 13.65L54.10 9.00C54.10 7.63 53.24 7.03 52.15 7.03C50.64 7.03 50.04 8.06 49.84 8.50L49.84 7.22L48.76 7.22ZM58.80 13.85C60.89 13.85 61.77 12.32 61.77 10.33C61.77 8.25 60.77 7.03 58.80 7.03C56.76 7.03 55.80 8.44 55.80 10.33C55.80 12.47 56.69 13.85 58.80 13.85ZM58.80 12.92C57.64 12.92 57.01 12.08 57.01 10.47C57.01 8.88 57.64 7.95 58.80 7.95C59.95 7.95 60.56 8.85 60.56 10.47C60.56 11.96 59.95 12.92 58.80 12.92Z"></path></g><defs data-v-fde0c5aa=""><linearGradient data-v-fde0c5aa="" gradientTransform="rotate(25)" id="2499ca46-8c95-4705-a998-7517ffeaad6f" x1="0%" y1="0%" x2="100%" y2="0%"><stop data-v-fde0c5aa="" offset="0%" stop-color="#288B58" stop-opacity="1"></stop><stop data-v-fde0c5aa="" offset="100%" stop-color="#1522F1" stop-opacity="1"></stop></linearGradient></defs><g data-v-fde0c5aa="" id="53d6048d-aa4f-4a86-b13e-9c55cb452cfb" stroke="none" fill="url(#2499ca46-8c95-4705-a998-7517ffeaad6f)" transform="matrix(0.5432174801826477,0,0,0.5432174801826477,33.882326528915016,122.86994324587536)"><path d="M61.593 46.267l.004.021.005.021c.038.222.797.109.984-.134l.007-.004c2.208-2.732 5.82-2.428 8.966-2.792 2.021-.233 4.051-.587 5.985-1.222 4.405-1.444 6.639-6.494 9.865-9.446.22-.2.043-.302-.192-.302-5.819-.023-12.049-.503-17.617 1.562-5.241 1.944-6.759 7.319-8.007 12.296M47.388 21.693c-.955 4.124 1.494 10.174 4.587 12.904.129.115.324.122.501.065a.525.525 0 0 0 .339-.208c4.706-6.957 11.15-16.488 5.445-24.755-.212-.309-.711-.16-.919.066-3.725 4.075-8.619 6.178-9.953 11.928M34.734 51.221l.117-.059.035-.021.096-.082.002-.003.034-.059.014-.058.008-.023v-.239c0-.102-.156-.135-.347-.121-5.661-5.514-14.308-4.793-20.791-8.892-.179-.113-1.148.005-1.01.333 1.693 4.052 2.977 8.907 7.075 11.195 4.74 2.644 10.286-.031 14.734-1.956l.033-.015zM38.014 65.277c2.927-3.315 2.48-7.552 2.438-11.654-.002-.156-.257-.186-.514-.13l-.214.062c-3.461 1.68-7.188 2.932-9.8 5.896-2.876 3.259-1.969 8.294-2.962 12.235-.097.387.72.149.845.08 3.542-1.967 7.461-3.382 10.207-6.489M26.812 36.294h.088l.062-.01c.299-.045.592-.247.503-.518-1.025-3.133-1.885-7.154-4.471-9.445-2.563-2.271-6.516-2.166-9.677-1.604-.317.056-.584.419-.303.672 2.637 2.381 2.634 6.229 5.3 8.521 2.213 1.901 5.74 1.89 8.448 2.382h.05zM82.325 65.637c-3.229-1.935-6.361-4.34-10.181-4.881-3.393-.482-6.024.671-9.221 1.685-.145.047-.219.106-.249.171l.004.23c1.987 3.205 5.032 6.789 8.965 7.415 4.424.703 6.754-2.553 10.577-4.065.249-.098.379-.39.105-.555M66.488 53.189c-.074.113-.059.194.008.247a.358.358 0 0 0 .172.099c5.892 1.838 10.949.225 15.351-3.984.233-.224.013-.424-.235-.45-5.671-.584-11.754-1.317-15.296 4.088M36.259 22.924c.292.257.899-.019.928-.349 2.331-2.359 1.812-5.882.568-8.673-1.592-3.574-6.044-2.686-8.583-4.823-.317-.269-.988.019-.922.455.487 3.17.644 6.359 2.29 9.193 1.294 2.231 3.873 2.58 5.719 4.197M61.094 26.182c2.436.011 5.171.302 7.552-.338 3.041-.816 5.266-4.345 7.855-6.025.196-.127.305-.353.001-.418-2.825-.601-6.36-1.79-9.183-.468-3.043 1.423-4.813 4.166-6.504 6.961l-.013.16c-.002.072.077.128.292.128M27.572 44.208c2.506 1.403 5.173 1.063 7.126-1.006l.062-.123c-2.381-4.594-7.229-5.546-11.708-3.465-.085.04-.291.149-.187.263 1.512 1.66 2.705 3.208 4.707 4.331M46.889 66.067c-.068-1.976-.748-3.919-.491-5.895l-.01-.149c-.078-.279-.758-.188-.971.074-2.01 1.576-3.833 3.195-5.092 5.45-1.865 3.337-2.668 7.343-3.627 10.999-.079.302.456.263.602.227 3.27-.812 6.073-2.246 7.991-5.1 1.054-1.567 1.662-3.732 1.598-5.606M27.847 23.859l.06-.002c.303.021.654-.142.648-.429-.086-3.579-1.304-6.376-4.179-8.562-4.183-3.182-8.807-4.563-12.107-8.953-.23-.306-1.016-.167-1.007.27.074 4.389 1.121 9.062 4.458 12.18 3.254 3.042 7.78 4.784 12.127 5.496M89.017 59.001c-1.857.337-2.729-1.299-3.842-2.437-.712-.729-1.604-.884-2.577-.932-2.29-.108-5.108.54-7.085 1.715a.695.695 0 0 0-.194.173c-.157.16-.215.354-.031.472 1.164.736 2.037 1.799 3.06 2.705 1.291 1.139 2.91 1.672 4.576 1.951 2.824.474 4.101-1.602 6.189-2.954.324-.21.478-.798-.096-.693M63.553 71.891c-.315-.094-.96.14-.881.409.49 1.661.48 4.793 2.503 5.411 1.983.606 4.288-.717 6.353-.411.178.026 1.072-.14.81-.47-2.081-2.642-5.371-4.752-8.785-4.939M44.815 18.733l.019.019.007.007c.197.267.938.059 1.025-.195 2.535-2.571 4.465-5.096 5.426-8.632.951-3.483.211-7.266-2.224-9.94-.196-.217-.733-.06-.904.12-2.537 2.633-4.152 5.468-5.178 8.963-.409 1.391-.82 2.631-.572 4.069.336 1.951 1.523 3.844 2.401 5.589M43.25 33.75s5.75-4.25.75-12c-1.25-2.5-5.5 1.25-4.75 6.25s4 5.75 4 5.75zM37.833 32.917s.333-6.834-4.5-7.667-6.75-.333-6.75-.333 1.667 8.833 11.25 8z"></path><path d="M45.048 84.649C43.866 90.101 44.392 95 46.572 100h21.264c-3.964-7-7.68-15.628-8.312-23.473-.597-7.392.046-16.431 5.229-22.1.067-.072.059-.171-.052-.19-3.198-.606-5.769-2.199-8.065-4.224 1.29-6.444 2.861-12.762 4.916-19.035.136-.414-.87-.178-1.011.052-2.823 4.662-5.858 9.777-7.652 15.183-.906-1.007-1.799-2.032-2.708-3.032-4.5-4.953-10.533-7.23-16.861-8.456-.14-.027-1.181.17-.917.415 9.101 8.415 18.157 17.27 16.727 30.964-.658 6.299-2.745 12.387-4.082 18.545z"></path></g><!----></svg>