<?xml version="1.0" encoding="UTF-8" standalone="no"?>
<svg
   data-v-fde0c5aa=""
   viewBox="0 0 258.38666 54.383385"
   class="iconLeft"
   version="1.1"
   id="svg23"
   sodipodi:docname="grow-bono-logo.svg"
   width="258.38666"
   height="54.383385"
   inkscape:version="1.1.1 (3bf5ae0d25, 2021-09-20)"
   xmlns:inkscape="http://www.inkscape.org/namespaces/inkscape"
   xmlns:sodipodi="http://sodipodi.sourceforge.net/DTD/sodipodi-0.dtd"
   xmlns:xlink="http://www.w3.org/1999/xlink"
   xmlns="http://www.w3.org/2000/svg"
   xmlns:svg="http://www.w3.org/2000/svg">
  <sodipodi:namedview
     id="namedview25"
     pagecolor="#ffffff"
     bordercolor="#666666"
     borderopacity="1.0"
     inkscape:pageshadow="2"
     inkscape:pageopacity="0.0"
     inkscape:pagecheckerboard="0"
     showgrid="false"
     fit-margin-top="0"
     fit-margin-left="0"
     fit-margin-right="0"
     fit-margin-bottom="0"
     inkscape:zoom="2.3966667"
     inkscape:cx="107.85814"
     inkscape:cy="108.06676"
     inkscape:window-width="2256"
     inkscape:window-height="1398"
     inkscape:window-x="-11"
     inkscape:window-y="-11"
     inkscape:window-maximized="1"
     inkscape:current-layer="svg23" />
  <!---->
  <defs
     data-v-fde0c5aa=""
     id="defs2">
    <!---->
    <linearGradient
       inkscape:collect="always"
       xlink:href="#2499ca46-8c95-4705-a998-7517ffeaad6f"
       id="linearGradient922"
       gradientTransform="scale(1.000992,0.999009)"
       x1="11.250763"
       y1="-0.11357637"
       x2="89.313499"
       y2="-0.11357637"
       gradientUnits="userSpaceOnUse" />
    <linearGradient
       inkscape:collect="always"
       xlink:href="#2499ca46-8c95-4705-a998-7517ffeaad6f"
       id="linearGradient924"
       gradientTransform="scale(0.71574672,1.3971423)"
       x1="45.211952"
       y1="22.01008"
       x2="94.776543"
       y2="22.01008"
       gradientUnits="userSpaceOnUse" />
    <linearGradient
       inkscape:collect="always"
       xlink:href="#2499ca46-8c95-4705-a998-7517ffeaad6f"
       id="linearGradient926"
       gradientTransform="scale(0.88346825,1.1319026)"
       x1="12.7474"
       y1="-0.10024167"
       x2="101.19447"
       y2="-0.10024167"
       gradientUnits="userSpaceOnUse" />
  </defs>
  <defs
     data-v-fde0c5aa=""
     id="defs6">
    <!---->
  </defs>
  <g
     data-v-fde0c5aa=""
     id="243e1b47-6441-4f9e-beda-cafe26eafc27"
     fill="#000000"
     transform="matrix(3.4499995,0,0,3.4499995,45.280175,-5.9580684)">
    <path
       d="m 1.09,9.48 c 0,0.67 0.18,1.22 0.53,1.61 -0.51,0.36 -0.85,0.78 -0.85,1.43 0,0.77 0.48,1.06 1.02,1.26 -0.39,0.26 -1.02,0.78 -1.02,1.59 0,1.39 1.82,1.67 2.98,1.67 1.74,0 3.1,-0.63 3.1,-2.16 0,-1.61 -1.53,-1.79 -2.9,-1.87 -1.14,-0.07 -2.17,-0.09 -2.17,-0.76 0,-0.29 0.18,-0.5 0.46,-0.7 0.38,0.18 0.84,0.28 1.39,0.28 1.62,0 2.61,-0.85 2.61,-2.41 C 6.24,8.97 6.16,8.58 5.99,8.25 6.64,7.94 6.94,7.43 6.94,6.8 6.94,6.66 6.93,6.51 6.89,6.34 L 5.92,6.2 v 0.49 c 0,0.35 -0.1,0.7 -0.36,0.98 C 5.11,7.25 4.48,7.03 3.68,7.03 1.99,7.03 1.09,8.01 1.09,9.48 Z m 2.55,1.5 C 2.67,10.98 2.3,10.42 2.3,9.45 2.3,8.46 2.7,7.88 3.67,7.88 c 0.95,0 1.37,0.56 1.37,1.54 0,1 -0.42,1.56 -1.4,1.56 z m 0.15,3.08 c 1.1,0.07 2.01,0.22 2.01,0.99 0,0.8 -0.94,1.09 -2.06,1.09 -0.84,0 -1.96,-0.17 -1.96,-0.98 0,-0.56 0.5,-0.92 0.95,-1.17 0.41,0.04 0.6,0.04 1.06,0.07 z m 4.48,-0.41 h 1.12 v -3.28 c 0.17,-0.96 0.63,-2.29 1.59,-2.29 0.4,0 0.64,0.4 0.64,0.4 L 12.24,7.6 c 0,0 -0.33,-0.57 -1.05,-0.57 -1.03,0 -1.61,0.82 -1.84,1.44 V 7.22 H 8.27 Z m 7.62,0.2 c 2.09,0 2.97,-1.53 2.97,-3.52 0,-2.08 -1,-3.3 -2.97,-3.3 -2.04,0 -3,1.41 -3,3.3 0,2.14 0.89,3.52 3,3.52 z m 0,-0.93 c -1.16,0 -1.79,-0.84 -1.79,-2.45 0,-1.59 0.63,-2.52 1.79,-2.52 1.15,0 1.76,0.9 1.76,2.52 0,1.49 -0.61,2.45 -1.76,2.45 z m 6.19,0.73 h 0.89 l 1.35,-3.71 c 0.11,-0.31 0.21,-0.64 0.31,-0.95 0.08,0.31 0.19,0.66 0.3,0.96 l 1.32,3.7 h 0.9 l 2.28,-6.43 h -1.11 l -1.34,3.97 c -0.09,0.23 -0.18,0.57 -0.27,0.84 L 26.45,11.19 25.1,7.22 h -0.84 l -1.41,3.97 c -0.09,0.21 -0.17,0.53 -0.24,0.82 L 22.36,11.19 20.99,7.22 h -1.21 z m 11.81,0 h 0.94 l 0.06,-0.85 c 0.33,0.58 0.89,1.05 1.97,1.05 1.93,0 2.8,-1.61 2.8,-3.63 0,-1.58 -0.7,-3.19 -2.69,-3.19 -0.92,0 -1.56,0.49 -1.96,1.01 V 3.6 h -1.12 z m 2.94,-0.73 c -1.1,0 -1.8,-0.99 -1.8,-2.43 0,-1.45 0.67,-2.54 1.85,-2.54 0.98,0 1.58,0.76 1.58,2.35 0,1.49 -0.45,2.62 -1.63,2.62 z m 7.2,0.93 c 2.09,0 2.97,-1.53 2.97,-3.52 0,-2.08 -1,-3.3 -2.97,-3.3 -2.04,0 -3,1.41 -3,3.3 0,2.14 0.89,3.52 3,3.52 z m 0,-0.93 c -1.16,0 -1.79,-0.84 -1.79,-2.45 0,-1.59 0.63,-2.52 1.79,-2.52 1.15,0 1.76,0.9 1.76,2.52 0,1.49 -0.61,2.45 -1.76,2.45 z m 4.73,0.73 h 1.12 v -3.43 c 0.13,-0.57 0.65,-2.23 2.09,-2.23 0.67,0 1.01,0.37 1.01,1.33 v 4.33 H 54.1 V 9 c 0,-1.37 -0.86,-1.97 -1.95,-1.97 -1.51,0 -2.11,1.03 -2.31,1.47 V 7.22 h -1.08 z m 10.04,0.2 c 2.09,0 2.97,-1.53 2.97,-3.52 0,-2.08 -1,-3.3 -2.97,-3.3 -2.04,0 -3,1.41 -3,3.3 0,2.14 0.89,3.52 3,3.52 z m 0,-0.93 c -1.16,0 -1.79,-0.84 -1.79,-2.45 0,-1.59 0.63,-2.52 1.79,-2.52 1.15,0 1.76,0.9 1.76,2.52 0,1.49 -0.61,2.45 -1.76,2.45 z"
       id="path8" />
  </g>
  <defs
     data-v-fde0c5aa=""
     id="defs16">
    <linearGradient
       data-v-fde0c5aa=""
       gradientTransform="rotate(25)"
       id="2499ca46-8c95-4705-a998-7517ffeaad6f"
       x1="0"
       y1="0"
       x2="1"
       y2="0">
      <stop
         data-v-fde0c5aa=""
         offset="0%"
         stop-color="#288B58"
         stop-opacity="1"
         id="stop11" />
      <stop
         data-v-fde0c5aa=""
         offset="100%"
         stop-color="#1522F1"
         stop-opacity="1"
         id="stop13" />
    </linearGradient>
  </defs>
  <g
     data-v-fde0c5aa=""
     id="53d6048d-aa4f-4a86-b13e-9c55cb452cfb"
     stroke="none"
     fill="url(#2499ca46-8c95-4705-a998-7517ffeaad6f)"
     transform="matrix(0.54321748,0,0,0.54321748,-6.1176736,0.06163553)"
     style="fill:url(#linearGradient926)">
    <path
       d="m 61.593,46.267 0.004,0.021 0.005,0.021 c 0.038,0.222 0.797,0.109 0.984,-0.134 l 0.007,-0.004 c 2.208,-2.732 5.82,-2.428 8.966,-2.792 2.021,-0.233 4.051,-0.587 5.985,-1.222 4.405,-1.444 6.639,-6.494 9.865,-9.446 0.22,-0.2 0.043,-0.302 -0.192,-0.302 C 81.398,32.386 75.168,31.906 69.6,33.971 64.359,35.915 62.841,41.29 61.593,46.267 M 47.388,21.693 c -0.955,4.124 1.494,10.174 4.587,12.904 0.129,0.115 0.324,0.122 0.501,0.065 a 0.525,0.525 0 0 0 0.339,-0.208 C 57.521,27.497 63.965,17.966 58.26,9.699 58.048,9.39 57.549,9.539 57.341,9.765 53.616,13.84 48.722,15.943 47.388,21.693 m -12.654,29.528 0.117,-0.059 0.035,-0.021 0.096,-0.082 0.002,-0.003 0.034,-0.059 0.014,-0.058 0.008,-0.023 v -0.239 c 0,-0.102 -0.156,-0.135 -0.347,-0.121 -5.661,-5.514 -14.308,-4.793 -20.791,-8.892 -0.179,-0.113 -1.148,0.005 -1.01,0.333 1.693,4.052 2.977,8.907 7.075,11.195 4.74,2.644 10.286,-0.031 14.734,-1.956 z m 3.28,14.056 c 2.927,-3.315 2.48,-7.552 2.438,-11.654 -0.002,-0.156 -0.257,-0.186 -0.514,-0.13 l -0.214,0.062 c -3.461,1.68 -7.188,2.932 -9.8,5.896 -2.876,3.259 -1.969,8.294 -2.962,12.235 -0.097,0.387 0.72,0.149 0.845,0.08 3.542,-1.967 7.461,-3.382 10.207,-6.489 M 26.812,36.294 H 26.9 l 0.062,-0.01 c 0.299,-0.045 0.592,-0.247 0.503,-0.518 -1.025,-3.133 -1.885,-7.154 -4.471,-9.445 -2.563,-2.271 -6.516,-2.166 -9.677,-1.604 -0.317,0.056 -0.584,0.419 -0.303,0.672 2.637,2.381 2.634,6.229 5.3,8.521 2.213,1.901 5.74,1.89 8.448,2.382 h 0.05 z m 55.513,29.343 c -3.229,-1.935 -6.361,-4.34 -10.181,-4.881 -3.393,-0.482 -6.024,0.671 -9.221,1.685 -0.145,0.047 -0.219,0.106 -0.249,0.171 l 0.004,0.23 c 1.987,3.205 5.032,6.789 8.965,7.415 4.424,0.703 6.754,-2.553 10.577,-4.065 0.249,-0.098 0.379,-0.39 0.105,-0.555 M 66.488,53.189 c -0.074,0.113 -0.059,0.194 0.008,0.247 a 0.358,0.358 0 0 0 0.172,0.099 c 5.892,1.838 10.949,0.225 15.351,-3.984 0.233,-0.224 0.013,-0.424 -0.235,-0.45 C 76.113,48.517 70.03,47.784 66.488,53.189 M 36.259,22.924 c 0.292,0.257 0.899,-0.019 0.928,-0.349 2.331,-2.359 1.812,-5.882 0.568,-8.673 -1.592,-3.574 -6.044,-2.686 -8.583,-4.823 -0.317,-0.269 -0.988,0.019 -0.922,0.455 0.487,3.17 0.644,6.359 2.29,9.193 1.294,2.231 3.873,2.58 5.719,4.197 m 24.835,3.258 c 2.436,0.011 5.171,0.302 7.552,-0.338 3.041,-0.816 5.266,-4.345 7.855,-6.025 0.196,-0.127 0.305,-0.353 10e-4,-0.418 -2.825,-0.601 -6.36,-1.79 -9.183,-0.468 -3.043,1.423 -4.813,4.166 -6.504,6.961 l -0.013,0.16 c -0.002,0.072 0.077,0.128 0.292,0.128 M 27.572,44.208 c 2.506,1.403 5.173,1.063 7.126,-1.006 l 0.062,-0.123 c -2.381,-4.594 -7.229,-5.546 -11.708,-3.465 -0.085,0.04 -0.291,0.149 -0.187,0.263 1.512,1.66 2.705,3.208 4.707,4.331 m 19.317,21.859 c -0.068,-1.976 -0.748,-3.919 -0.491,-5.895 l -0.01,-0.149 c -0.078,-0.279 -0.758,-0.188 -0.971,0.074 -2.01,1.576 -3.833,3.195 -5.092,5.45 -1.865,3.337 -2.668,7.343 -3.627,10.999 -0.079,0.302 0.456,0.263 0.602,0.227 3.27,-0.812 6.073,-2.246 7.991,-5.1 1.054,-1.567 1.662,-3.732 1.598,-5.606 m -19.042,-42.208 0.06,-0.002 c 0.303,0.021 0.654,-0.142 0.648,-0.429 -0.086,-3.579 -1.304,-6.376 -4.179,-8.562 -4.183,-3.182 -8.807,-4.563 -12.107,-8.953 -0.23,-0.306 -1.016,-0.167 -1.007,0.27 0.074,4.389 1.121,9.062 4.458,12.18 3.254,3.042 7.78,4.784 12.127,5.496 m 61.17,35.142 c -1.857,0.337 -2.729,-1.299 -3.842,-2.437 -0.712,-0.729 -1.604,-0.884 -2.577,-0.932 -2.29,-0.108 -5.108,0.54 -7.085,1.715 a 0.695,0.695 0 0 0 -0.194,0.173 c -0.157,0.16 -0.215,0.354 -0.031,0.472 1.164,0.736 2.037,1.799 3.06,2.705 1.291,1.139 2.91,1.672 4.576,1.951 2.824,0.474 4.101,-1.602 6.189,-2.954 0.324,-0.21 0.478,-0.798 -0.096,-0.693 m -25.464,12.89 c -0.315,-0.094 -0.96,0.14 -0.881,0.409 0.49,1.661 0.48,4.793 2.503,5.411 1.983,0.606 4.288,-0.717 6.353,-0.411 0.178,0.026 1.072,-0.14 0.81,-0.47 -2.081,-2.642 -5.371,-4.752 -8.785,-4.939 m -18.738,-53.158 0.019,0.019 0.007,0.007 c 0.197,0.267 0.938,0.059 1.025,-0.195 2.535,-2.571 4.465,-5.096 5.426,-8.632 0.951,-3.483 0.211,-7.266 -2.224,-9.94 -0.196,-0.217 -0.733,-0.06 -0.904,0.12 -2.537,2.633 -4.152,5.468 -5.178,8.963 -0.409,1.391 -0.82,2.631 -0.572,4.069 0.336,1.951 1.523,3.844 2.401,5.589 M 43.25,33.75 c 0,0 5.75,-4.25 0.75,-12 -1.25,-2.5 -5.5,1.25 -4.75,6.25 0.75,5 4,5.75 4,5.75 z m -5.417,-0.833 c 0,0 0.333,-6.834 -4.5,-7.667 -4.833,-0.833 -6.75,-0.333 -6.75,-0.333 0,0 1.667,8.833 11.25,8 z"
       id="path18"
       style="fill:url(#linearGradient922)" />
    <path
       d="M 45.048,84.649 C 43.866,90.101 44.392,95 46.572,100 h 21.264 c -3.964,-7 -7.68,-15.628 -8.312,-23.473 -0.597,-7.392 0.046,-16.431 5.229,-22.1 0.067,-0.072 0.059,-0.171 -0.052,-0.19 -3.198,-0.606 -5.769,-2.199 -8.065,-4.224 1.29,-6.444 2.861,-12.762 4.916,-19.035 0.136,-0.414 -0.87,-0.178 -1.011,0.052 -2.823,4.662 -5.858,9.777 -7.652,15.183 -0.906,-1.007 -1.799,-2.032 -2.708,-3.032 -4.5,-4.953 -10.533,-7.23 -16.861,-8.456 -0.14,-0.027 -1.181,0.17 -0.917,0.415 9.101,8.415 18.157,17.27 16.727,30.964 -0.658,6.299 -2.745,12.387 -4.082,18.545 z"
       id="path20"
       style="fill:url(#linearGradient924)" />
  </g>
  <!---->
</svg>
